<?xml version="1.0" standalone="no"?><!DOCTYPE svg PUBLIC "-//W3C//DTD SVG 1.1//EN" "http://www.w3.org/Graphics/SVG/1.1/DTD/svg11.dtd"><svg t="1685798158972" class="icon" viewBox="0 0 1024 1024" version="1.1" xmlns="http://www.w3.org/2000/svg" p-id="13675" xmlns:xlink="http://www.w3.org/1999/xlink" width="200" height="200"><path d="M59.5 139.143v745.715h905V139.143h-905z m838.035 681.981H126.481V204.193h771.054v616.931z" fill="#9bdcf2" p-id="13676"></path><path d="M780.188 793.34V632.361C748.42 485.079 592.359 489.284 592.359 489.284l-55.911 188.107-14.556-177.218h-19.791l-13.798 167.923-64.67-178.813s-148.052-4.205-179.82 143.077v160.979M511.992 469.714c51.101 0 92.508-41.432 92.508-92.508 0-51.118-41.407-92.532-92.508-92.532-51.077 0-92.508 41.415-92.508 92.532 0 51.094 41.431 92.508 92.508 92.508z" fill="#9bdcf2" p-id="13677"></path></svg>