<?xml version="1.0" standalone="no"?><!DOCTYPE svg PUBLIC "-//W3C//DTD SVG 1.1//EN" "http://www.w3.org/Graphics/SVG/1.1/DTD/svg11.dtd"><svg t="1685798637325" class="icon" viewBox="0 0 1024 1024" version="1.1" xmlns="http://www.w3.org/2000/svg" p-id="18168" xmlns:xlink="http://www.w3.org/1999/xlink" width="200" height="200"><path d="M98.7 274.5v420c0 16.5 12.9 30 28.6 30h28.6c0 66 51.4 120 114.3 120s114.3-54 114.3-120H613c0 66 51.4 120 114.3 120s114.3-54 114.3-120h28.6c15.7 0 28.6-13.5 28.6-30v-84.7c0-3-0.7-6-2.1-8.2l-108-170.4c-2.9-4.5-7.1-6.7-12.1-6.7H670.1v-150c0-16.5-12.9-30-28.6-30H127.3c-15.7 0-28.6 13.5-28.6 30z m572.9 438c4.3-23.2 22.1-42.8 45-47.3 40-8.2 75 28.5 67.1 70.5-5 24-22.9 42.8-45 47.3-40 8.2-75-28.5-67.1-70.5z m-1.5-228h85c5 0 9.3 2.2 11.4 6.7l75 113.2H670.1V484.5z m-455.7 228c4.3-23.2 22.1-42.8 45-47.3 40-8.2 75 28.5 67.1 70.5-5 24-22.9 42.8-45 47.3-39.9 8.2-74.9-28.5-67.1-70.5z" fill="#c8ecc3" p-id="18169"></path><path d="M114.3 417.7h219.2V519H114.3z" fill="#c8ecc3" p-id="18170"></path><path d="M324 585.8L533.2 459 324 332.2z" fill="#c8ecc3" p-id="18171"></path></svg>