<?xml version="1.0" standalone="no"?><!DOCTYPE svg PUBLIC "-//W3C//DTD SVG 1.1//EN" "http://www.w3.org/Graphics/SVG/1.1/DTD/svg11.dtd"><svg t="1684658757075" class="icon" viewBox="0 0 1024 1024" version="1.1" xmlns="http://www.w3.org/2000/svg" p-id="9324" xmlns:xlink="http://www.w3.org/1999/xlink" width="200" height="200"><path d="M573.9 516.2L512 640l-61.9-123.8C232 546.4 64 733.6 64 960h896c0-226.4-168-413.6-386.1-443.8zM480 384h64c17.7 0 32.1 14.4 32.1 32.1 0 17.7-14.4 32.1-32.1 32.1h-64c-11.9 0-22.3-6.5-27.8-16.1H356c34.9 48.5 91.7 80 156 80 106 0 192-86 192-192s-86-192-192-192-192 86-192 192c0 28.5 6.2 55.6 17.4 80h114.8c5.5-9.6 15.9-16.1 27.8-16.1z" fill="#51714B" p-id="9325"></path><path d="M272 432.1h84c-4.2-5.9-8.1-12-11.7-18.4-2.3-4.1-4.4-8.3-6.4-12.5-0.2-0.4-0.4-0.7-0.5-1.1H288c-8.8 0-16-7.2-16-16v-48.4c0-64.1 25-124.3 70.3-169.6S447.9 95.8 512 95.8s124.3 25 169.7 70.3c38.3 38.3 62.1 87.2 68.5 140.2-8.4 4-14.2 12.5-14.2 22.4v78.6c0 13.7 11.1 24.8 24.8 24.8h14.6c13.7 0 24.8-11.1 24.8-24.8v-78.6c0-11.3-7.6-20.9-18-23.8-6.9-60.9-33.9-117.4-78-161.3C652.9 92.1 584.6 63.9 512 63.9s-140.9 28.3-192.3 79.6C268.3 194.8 240 263.1 240 335.7v64.4c0 17.7 14.3 32 32 32z" fill="#51714B" p-id="9326"></path></svg>