<?xml version="1.0" standalone="no"?><!DOCTYPE svg PUBLIC "-//W3C//DTD SVG 1.1//EN" "http://www.w3.org/Graphics/SVG/1.1/DTD/svg11.dtd"><svg t="1684584250427" class="icon" viewBox="0 0 1024 1024" version="1.1" xmlns="http://www.w3.org/2000/svg" p-id="2644" xmlns:xlink="http://www.w3.org/1999/xlink" width="200" height="200"><path d="M505.6 337.066667c-115.2 0-221.866667 46.933333-298.666667 121.6l-59.733333-59.733334c78.933333-76.8 183.466667-130.133333 298.666667-142.933333 19.2-2.133333 38.4-4.266667 59.733333-4.266667s40.533333 2.133333 59.733333 4.266667c121.6 14.933333 230.4 70.4 311.466667 155.733333l-59.733333 61.866667c-78.933333-85.333333-187.733333-136.533333-311.466667-136.533333z" fill="#ffffff" p-id="2645"></path><path d="M505.6 529.066667c-61.866667 0-119.466667 25.6-162.133333 66.133333L283.733333 533.333333c57.6-55.466667 136.533333-89.6 221.866667-89.6 93.866667 0 179.2 40.533333 236.8 104.533334L682.666667 610.133333c-42.666667-51.2-106.666667-81.066667-177.066667-81.066666zM418.133333 667.733333c23.466667-21.333333 53.333333-34.133333 87.466667-34.133333 42.666667 0 78.933333 21.333333 102.4 51.2l-85.333333 87.466667-104.533334-104.533334z" fill="#ffffff" p-id="2646"></path></svg>