<?xml version="1.0" standalone="no"?><!DOCTYPE svg PUBLIC "-//W3C//DTD SVG 1.1//EN" "http://www.w3.org/Graphics/SVG/1.1/DTD/svg11.dtd"><svg t="1684587223787" class="icon" viewBox="0 0 1024 1024" version="1.1" xmlns="http://www.w3.org/2000/svg" p-id="3237" xmlns:xlink="http://www.w3.org/1999/xlink" width="200" height="200"><path d="M858.2144 1024H147.8656c-46.2848 0-83.8656-40.8576-83.8656-91.0336V401.2032c0-17.7152 13.1072-32.0512 29.2864-32.0512s29.2864 14.336 29.2864 32.0512V932.864c0 14.9504 11.3664 27.0336 25.3952 27.0336h710.3488c14.0288 0 25.3952-12.1856 25.3952-27.0336V91.0336c0-14.9504-11.3664-27.0336-25.3952-27.0336H147.8656c-14.0288 0-25.3952 12.1856-25.3952 27.0336v162.5088c0 17.7152-13.1072 32.0512-29.2864 32.0512s-29.2864-14.336-29.2864-32.0512V91.0336c0-50.176 37.6832-91.0336 83.968-91.0336h710.3488C904.3968 0 942.08 40.8576 942.08 91.0336V932.864c0 50.2784-37.6832 91.136-83.8656 91.136z" p-id="3238" fill="#51714B"></path><path d="M912.7936 285.4912H93.184c-16.1792 0-29.2864-14.336-29.2864-32.0512s13.1072-32.0512 29.2864-32.0512h819.6096c16.1792 0 29.2864 14.336 29.2864 32.0512s-13.1072 32.0512-29.2864 32.0512zM555.8272 873.8816H501.76V501.6576c-13.0048 13.4144-30.1056 26.8288-51.2 40.2432s-40.0384 23.4496-56.832 30.208v-56.4224c30.208-15.36 56.6272-33.9968 79.2576-55.808 22.6304-21.8112 38.6048-43.008 48.0256-63.5904h34.816v477.5936z" p-id="3239" fill="#51714B"></path></svg>