<?xml version="1.0" standalone="no"?><!DOCTYPE svg PUBLIC "-//W3C//DTD SVG 1.1//EN" "http://www.w3.org/Graphics/SVG/1.1/DTD/svg11.dtd"><svg t="1684587503296" class="icon" viewBox="0 0 1024 1024" version="1.1" xmlns="http://www.w3.org/2000/svg" p-id="4428" xmlns:xlink="http://www.w3.org/1999/xlink" width="200" height="200"><path d="M593.783467 228.130133a34.133333 34.133333 0 0 1 2.56 68.164267l-2.56 0.1024H319.232a34.133333 34.133333 0 0 1-2.56-68.181333l2.56-0.085334h274.551467z" fill="#51714B" p-id="4429"></path><path d="M627.131733 68.266667H394.308267a115.0976 115.0976 0 0 0-115.0976 115.114666v67.362134l-97.536 102.912A102.4 102.4 0 0 0 153.6 424.0896V853.333333a102.4 102.4 0 0 0 102.4 102.4h512a102.4 102.4 0 0 0 102.4-102.4V424.4992a102.4 102.4 0 0 0-28.791467-71.185067l-99.362133-102.775466v-67.157334A115.0976 115.0976 0 0 0 627.131733 68.266667zM394.308267 136.533333h232.823466a46.830933 46.830933 0 0 1 46.848 46.848v67.157334a68.266667 68.266667 0 0 0 19.182934 47.445333l99.3792 102.775467a34.133333 34.133333 0 0 1 9.591466 23.722666V853.333333a34.133333 34.133333 0 0 1-34.133333 34.133334H256a34.133333 34.133333 0 0 1-34.133333-34.133334V424.106667a34.133333 34.133333 0 0 1 9.352533-23.483734l97.536-102.912a68.266667 68.266667 0 0 0 18.722133-46.967466v-67.3792A46.830933 46.830933 0 0 1 394.325333 136.533333z" fill="#51714B" p-id="4430"></path><path d="M384 537.6v221.866667h-68.266667v-221.866667a34.133333 34.133333 0 1 1 68.266667 0z" fill="#51714B" p-id="4431"></path></svg>