<?xml version="1.0" standalone="no"?><!DOCTYPE svg PUBLIC "-//W3C//DTD SVG 1.1//EN" "http://www.w3.org/Graphics/SVG/1.1/DTD/svg11.dtd"><svg t="1684659924020" class="icon" viewBox="0 0 1024 1024" version="1.1" xmlns="http://www.w3.org/2000/svg" p-id="19631" xmlns:xlink="http://www.w3.org/1999/xlink" width="200" height="200"><path d="M814.933333 914.666667H214.4c-54.933333 0-99.733333-44.8-99.733333-99.733334V214.4c0-54.933333 44.8-99.733333 99.733333-99.733333h600.533333c54.933333 0 99.733333 44.8 99.733334 99.733333v600.533333c0 54.933333-44.8 99.733333-99.733334 99.733334z" fill="#FFFFFF" p-id="19632"></path><path d="M561.066667 624H361.6c-43.733333 0-78.933333-35.2-78.933333-78.933333V489.6C282.666667 445.866667 317.866667 410.666667 361.6 410.666667h199.466667c43.733333 0 78.933333 35.2 78.933333 78.933333v55.466667c0 43.733333-35.2 78.933333-78.933333 78.933333z" fill="#51714B" p-id="19633" data-spm-anchor-id="a313x.7781069.0.i5" class="selected"></path><path d="M645.333333 517.333333m-128 0a128 128 0 1 0 256 0 128 128 0 1 0-256 0Z" fill="#51714B" p-id="19634" data-spm-anchor-id="a313x.7781069.0.i7" class="selected"></path><path d="M645.333333 517.333333m-117.333333 0a117.333333 117.333333 0 1 0 234.666667 0 117.333333 117.333333 0 1 0-234.666667 0Z" fill="#FFFFFF" p-id="19635" data-spm-anchor-id="a313x.7781069.0.i6" class=""></path></svg>